<svg id="Layer_1" data-name="Layer 1" xmlns="http://www.w3.org/2000/svg" viewBox="0 0 900 413.15"><defs><style>.cls-1{fill:#e9415b;}.cls-2{fill:#e9425c;}.cls-3{fill:#fff;}</style></defs><title>Artboard 1</title><polygon class="cls-1" points="362.35 154.57 362.34 154.59 362.35 154.57 362.35 154.57"/><path class="cls-2" d="M600.5,46.28a45.41,45.41,0,0,1-.86,24.16,32.56,32.56,0,0,1-3.45,7.24c9.36,16.65,3.27,29.17-1.37,35.3a31.6,31.6,0,0,1-10.09,8.29,28.75,28.75,0,0,1-4.71,16.6c-5.23,8-14.4,13.89-25.24,16a4.55,4.55,0,0,1-1.2.06l-.38.11c-1,.27-1.9.5-2.81.7v51.65a29.13,29.13,0,0,1-29.1,29.09H382.52a29.13,29.13,0,0,1-29.1-29.09l3.64-48.89a4.73,4.73,0,0,1-1.18-.17c-10.95-3.23-19.82-10.12-24.43-18.9a29.59,29.59,0,0,1-3.26-17.52,32.48,32.48,0,0,1-9.59-9.49c-4.19-6.75-9.26-20.2,2-36.45a33.67,33.67,0,0,1-2.86-7.77,46.88,46.88,0,0,1,1.42-24.93C323,30.51,334.4,20.66,348.37,25.21,358.71,28.6,361.74,37.37,364,43.78c.44,1.29,1,2.58,1.53,3.87A29.12,29.12,0,0,1,393.84,25h18.68a33.72,33.72,0,0,1,65,0h43.78a29.13,29.13,0,0,1,29.1,29.09V55a64.41,64.41,0,0,0,6.76-11.25c2.71-6,6.4-14.16,16.68-16.5C587.71,24.07,597.82,34.58,600.5,46.28Zm-14,19.78a31.1,31.1,0,0,0,.48-16.71c0-.1-2.44-10.33-10-8.61-3.39.77-4.78,3.5-7.16,8.78-4.42,9.83-11.83,18.77-19.37,27.39v64.18c.29-.07.57-.13.87-.22s.52-.53.92-.62c7.1-1.38,13-5,16.2-10a14.82,14.82,0,0,0,2.47-8.38,62.9,62.9,0,0,1-10.7,1.7,4.8,4.8,0,0,1-5.09-4.4,4.74,4.74,0,0,1,4.43-5.06c12.37-.92,21.26-5.58,24.24-9.53,4.57-6,4.69-12.52.35-20.17a50.19,50.19,0,0,1-20.67,9.39,4.76,4.76,0,0,1-5.62-3.69,4.71,4.71,0,0,1,3.7-5.61C573.77,82,583.6,74.74,586.46,66.06ZM534.22,210.69V51.19a8.65,8.65,0,0,0-8.65-8.63H412.13a8.65,8.65,0,0,0-8.65,8.63l6,159.5a8.65,8.65,0,0,0,8.65,8.65H525.57A8.65,8.65,0,0,0,534.22,210.69ZM425.94,25h38.15a21.07,21.07,0,0,0-38.15,0Zm-47.7,194.38h18.19a25,25,0,0,1-1.48-8.65l-1.7-58.4c-.69.65-1.33,1.35-2.08,1.94a5.79,5.79,0,0,1-2.33,1.1,30.75,30.75,0,0,1-16,4.94l-3.21,50.42A8.65,8.65,0,0,0,378.24,219.34ZM391.73,42.56h-3.36a8.65,8.65,0,0,0-8.64,8.63l-1.14,17.9q1.77,2.46,3.54,4.88c3.09,4.22,6.25,8.58,9.22,13.06l-1-35.84A26.12,26.12,0,0,1,391.73,42.56Zm-2.47,89.62c5.46-16.68-6.27-32.76-18.72-49.74-7.86-10.78-16-21.93-20.11-33.87-1.94-5.66-3.11-8.61-6.53-9.73-7.63-2.49-11.11,7.81-11.13,7.9A32.28,32.28,0,0,0,331.67,64c2.12,9.19,11.54,17.59,23.92,21.39a4.85,4.85,0,0,1,3.27,6.12,4.91,4.91,0,0,1-6.12,3.25,51.57,51.57,0,0,1-20.37-11.63c-5.19,7.46-5.7,14.14-1.57,20.79,2.69,4.35,11.39,10,24,12.1a4.91,4.91,0,0,1,4.07,5.64,5,5,0,0,1-5.65,4,64.79,64.79,0,0,1-10.85-2.78,15.31,15.31,0,0,0,1.74,8.85c2.83,5.38,8.54,9.69,15.72,11.79.39.13.54.54.89.74,13.93,5.35,20.93-.65,21.34-1.05.05-.06,0-.15.11-.22A22.3,22.3,0,0,0,389.26,132.18Z"/><path class="cls-3" d="M586.94,49.35a31.1,31.1,0,0,1-.48,16.71c-2.86,8.68-12.69,15.92-25,18.48a4.71,4.71,0,0,0-3.7,5.61,4.76,4.76,0,0,0,5.62,3.69,50.19,50.19,0,0,0,20.67-9.39c4.34,7.65,4.22,14.14-.35,20.17-3,3.95-11.87,8.61-24.24,9.53a4.74,4.74,0,0,0-4.43,5.06,4.8,4.8,0,0,0,5.09,4.4,62.9,62.9,0,0,0,10.7-1.7,14.82,14.82,0,0,1-2.47,8.38c-3.21,4.93-9.1,8.58-16.2,10-.4.09-.58.46-.92.62s-.58.15-.87.22V76.91c7.54-8.62,15-17.56,19.37-27.39,2.38-5.28,3.77-8,7.16-8.78C584.5,39,586.93,49.25,586.94,49.35Z"/><path class="cls-3" d="M534.22,51.19v159.5a8.65,8.65,0,0,1-8.65,8.65H418.11a8.65,8.65,0,0,1-8.65-8.65l-6-159.5a8.65,8.65,0,0,1,8.65-8.63H525.57A8.65,8.65,0,0,1,534.22,51.19Z"/><path class="cls-3" d="M464.09,25H425.94a21.07,21.07,0,0,1,38.15,0Z"/><path class="cls-3" d="M396.43,219.34H378.24a8.65,8.65,0,0,1-8.65-8.65l3.21-50.42a30.75,30.75,0,0,0,16-4.94,5.79,5.79,0,0,0,2.33-1.1c.75-.59,1.39-1.29,2.08-1.94l1.7,58.4A25,25,0,0,0,396.43,219.34Z"/><path class="cls-3" d="M388.37,42.56h3.36a26.12,26.12,0,0,0-1.42,8.63l1,35.84c-3-4.48-6.13-8.84-9.22-13.06q-1.77-2.41-3.54-4.88l1.14-17.9A8.65,8.65,0,0,1,388.37,42.56Z"/><path class="cls-3" d="M370.54,82.44c12.45,17,24.18,33.06,18.72,49.74A22.3,22.3,0,0,1,382.2,143c-.07.07-.06.16-.11.22-.41.4-7.41,6.4-21.34,1.05-.35-.2-.5-.61-.89-.74-7.18-2.1-12.89-6.41-15.72-11.79a15.31,15.31,0,0,1-1.74-8.85,64.79,64.79,0,0,0,10.85,2.78,5,5,0,0,0,5.65-4,4.91,4.91,0,0,0-4.07-5.64c-12.64-2.12-21.34-7.75-24-12.1-4.13-6.65-3.62-13.33,1.57-20.79a51.57,51.57,0,0,0,20.37,11.63,4.91,4.91,0,0,0,6.12-3.25,4.85,4.85,0,0,0-3.27-6.12c-12.38-3.8-21.8-12.2-23.92-21.39a32.28,32.28,0,0,1,1.1-17.25c0-.09,3.5-10.39,11.13-7.9,3.42,1.12,4.59,4.07,6.53,9.73C354.52,60.51,362.68,71.66,370.54,82.44Z"/><path class="cls-1" d="M498.66,57.93a11.61,11.61,0,0,0-6.38,21.33A21.14,21.14,0,0,1,450,78.72a11.64,11.64,0,1,0-12.54,1,33.72,33.72,0,0,0,67.42-.42,11.6,11.6,0,0,0-6.24-21.4"/><path class="cls-3" d="M76.11,375.91V345.39A25.54,25.54,0,0,0,55.56,336c-13.43,0-23.19,11-23.19,24.63s9.76,24.41,23.19,24.41c7.33,0,14.46-2,20.55-9.16m33,34.19h-33V404.6a49.18,49.18,0,0,1-27.05,7.53C22.39,412.13,0,389.95,0,360.66c0-29.51,22.39-51.49,49.06-51.49a49.18,49.18,0,0,1,27.05,7.53v-5.29h33Z"/><path class="cls-3" d="M203.32,408.26c-12.82,4.08-20.14,4.89-29.91,4.89-23.82,0-39.68-17.49-39.68-44.15V297.31h33v14.09h33.57v28.28H166.69V368c0,10,5.7,14.85,15.46,14.85,4.69,0,10.18-1,17.51-2.44Z"/><path class="cls-3" d="M292.89,375.91V345.39A25.54,25.54,0,0,0,272.34,336c-13.43,0-23.19,11-23.19,24.63s9.76,24.41,23.19,24.41c7.33,0,14.45-2,20.55-9.16m33,34.19h-33V404.6a49.18,49.18,0,0,1-27.05,7.53c-26.66,0-49-22.18-49-51.47,0-29.51,22.39-51.49,49-51.49a49.18,49.18,0,0,1,27.05,7.53v-5.29h33Z"/><rect class="cls-3" x="351.47" y="295.41" width="32.96" height="114.69"/><path class="cls-3" d="M481.06,375.91V345.39A25.56,25.56,0,0,0,460.51,336c-13.43,0-23.21,11-23.21,24.63s9.77,24.41,23.21,24.41c7.32,0,14.45-2,20.55-9.16m33,34.19h-33V404.6A49.21,49.21,0,0,1,454,412.13c-26.68,0-49.06-22.18-49.06-51.47,0-29.51,22.39-51.49,49.06-51.49a49.21,49.21,0,0,1,27.05,7.53v-5.29h33Z"/><path class="cls-3" d="M642.06,353.73V410.1H608.9V359c0-14-7.12-20.75-17.91-20.75-6.11,0-12.62,3.46-18.32,10V410.1h-33v-98.7h33v6.72c7.95-6.31,16.7-9.77,27.28-9.77,25,0,42.12,17.3,42.12,45.37"/><path class="cls-3" d="M737.47,376.33V345.79c-6.09-7.12-13.22-9.35-20.55-9.35-13.44,0-23.2,11-23.2,24.42,0,13.83,9.76,24.62,23.2,24.62,7.33,0,14.47-2,20.55-9.15m33,33.78h-33V405a49.29,49.29,0,0,1-27.06,7.52c-26.65,0-49.05-22.18-49.05-51.68,0-29.31,22.4-51.29,49.05-51.29a49.26,49.26,0,0,1,27.06,7.53V295.41h33Z"/><path class="cls-3" d="M867,375.91V345.39A25.55,25.55,0,0,0,846.48,336c-13.43,0-23.21,11-23.21,24.63s9.77,24.41,23.21,24.41c7.31,0,14.44-2,20.54-9.16m33,34.19H867V404.6A49.2,49.2,0,0,1,840,412.13c-26.65,0-49-22.18-49-51.47,0-29.51,22.39-51.49,49-51.49A49.2,49.2,0,0,1,867,316.7v-5.29h33Z"/></svg>