<?xml version="1.0" encoding="utf-8"?>
<!-- Generator: Adobe Illustrator 18.0.0, SVG Export Plug-In . SVG Version: 6.00 Build 0)  -->
<!DOCTYPE svg PUBLIC "-//W3C//DTD SVG 1.1//EN" "http://www.w3.org/Graphics/SVG/1.1/DTD/svg11.dtd">
<svg version="1.1" id="Layer_1" xmlns="http://www.w3.org/2000/svg" xmlns:xlink="http://www.w3.org/1999/xlink" x="0px" y="0px"
	 viewBox="0 0 1000 500" enable-background="new 0 0 1000 500" xml:space="preserve">
<g>
	<polygon fill="#E9425C" points="412.3,197.9 412.3,197.9 412.3,197.9 	"/>
	<g>
		<g id="XMLID_1_">
			<g>
				<path fill="#E9425C" d="M650.5,89.6c2.5,11.2,0.5,19.9-0.9,24.2c-0.8,2.5-2,4.9-3.5,7.2c9.4,16.7,3.3,29.2-1.4,35.3
					c-2.4,3.1-5.8,5.9-10.1,8.3c0.2,5.9-1.4,11.5-4.7,16.6c-5.2,8.1-14.4,13.9-25.2,16c-0.4,0.1-0.8,0.1-1.2,0.1l-0.4,0.1
					c-1,0.3-1.9,0.5-2.8,0.7v51.6c0,16-13,29.1-29.1,29.1h-36.9H474h-41.5c-16,0-29.1-13-29.1-29.1l3.6-48.9c-0.4,0-0.8-0.1-1.2-0.2
					c-11-3.2-19.8-10.1-24.4-18.9c-2.9-5.5-4-11.5-3.3-17.5c-4.2-2.8-7.5-6.1-9.6-9.5c-4.2-6.8-9.3-20.2,2-36.4
					c-1.3-2.6-2.3-5.2-2.9-7.8c-1-4.5-2.2-13.7,1.4-24.9c3.9-11.8,15.3-21.6,29.2-17.1c10.3,3.4,13.4,12.2,15.6,18.6
					c0.4,1.3,1,2.6,1.5,3.9c2.9-13,14.5-22.7,28.4-22.7h18.7c4-14.2,17-24.7,32.5-24.7c15.5,0,28.5,10.5,32.5,24.7h6.9h36.9
					c16.1,0,29.1,13,29.1,29.1v0.9c2.7-3.7,5.1-7.5,6.8-11.2c2.7-6,6.4-14.2,16.7-16.5C637.7,67.4,647.8,77.9,650.5,89.6z
					 M636.5,109.4c0.9-2.8,2.3-8.8,0.5-16.7c0-0.1-2.4-10.3-10-8.6c-3.4,0.8-4.8,3.5-7.2,8.8c-4.4,9.8-11.8,18.8-19.4,27.4v64.2
					c0.3-0.1,0.6-0.1,0.9-0.2c0.3-0.2,0.5-0.5,0.9-0.6c7.1-1.4,13-5,16.2-10c1.7-2.6,2.5-5.4,2.5-8.4c-3.4,0.8-7,1.4-10.7,1.7
					c-2.6,0.2-4.9-1.8-5.1-4.4c-0.2-2.6,1.8-4.9,4.4-5.1c12.4-0.9,21.3-5.6,24.2-9.5c4.6-6,4.7-12.5,0.4-20.2
					c-5.6,4.4-12.8,7.7-20.7,9.4c-2.6,0.5-5.1-1.1-5.6-3.7c-0.5-2.6,1.1-5.1,3.7-5.6C623.8,125.3,633.6,118,636.5,109.4z M584.2,254
					V94.5c0-4.8-3.9-8.6-8.6-8.6h-41.2h-72.3c-4.8,0-8.6,3.9-8.6,8.6l6,159.5c0,4.8,3.9,8.7,8.6,8.7h66.3h41.2
					C580.3,262.6,584.2,258.8,584.2,254z M475.9,68.3h38.2c-3.4-7.2-10.7-12.1-19.1-12.1C486.6,56.1,479.4,61.1,475.9,68.3z
					 M428.2,262.6h18.2c-0.9-2.6-1.5-5.5-1.5-8.7l-1.7-58.4c-0.7,0.7-1.3,1.4-2.1,1.9c-0.9,0.7-1.7,1-2.3,1.1
					c-2.8,1.9-8.3,4.6-16,4.9l-3.2,50.4C419.6,258.8,423.5,262.6,428.2,262.6z M441.7,85.9h-3.4c-4.8,0-8.6,3.9-8.6,8.6l-1.1,17.9
					c1.2,1.6,2.4,3.3,3.5,4.9c3.1,4.2,6.2,8.6,9.2,13.1l-1-35.8C440.3,91.4,440.8,88.5,441.7,85.9z M439.3,175.5
					c5.5-16.7-6.3-32.8-18.7-49.7c-7.9-10.8-16-21.9-20.1-33.9c-1.9-5.7-3.1-8.6-6.5-9.7c-7.6-2.5-11.1,7.8-11.1,7.9
					c-2.6,7.9-1.8,14.2-1.1,17.2c2.1,9.2,11.5,17.6,23.9,21.4c2.6,0.8,4.1,3.5,3.3,6.1c-0.8,2.6-3.5,4-6.1,3.2
					c-8-2.4-15-6.5-20.4-11.6c-5.2,7.5-5.7,14.1-1.6,20.8c2.7,4.3,11.4,10,24,12.1c2.7,0.4,4.5,3,4.1,5.6c-0.5,2.7-3,4.5-5.6,4.1
					c-3.8-0.6-7.4-1.6-10.9-2.8c-0.3,3,0.2,6,1.7,8.9c2.8,5.4,8.5,9.7,15.7,11.8c0.4,0.1,0.5,0.5,0.9,0.7
					c13.9,5.3,20.9-0.7,21.3-1.1c0.1-0.1,0-0.2,0.1-0.2C435.4,183.8,437.7,180.1,439.3,175.5z"/>
				<path fill="#FFFFFF" d="M636.9,92.7c1.8,7.9,0.5,13.9-0.5,16.7c-2.9,8.7-12.7,15.9-25,18.5c-2.6,0.5-4.2,3-3.7,5.6
					c0.5,2.6,3,4.2,5.6,3.7c7.9-1.6,15-5,20.7-9.4c4.3,7.6,4.2,14.1-0.4,20.2c-3,3.9-11.9,8.6-24.2,9.5c-2.6,0.2-4.6,2.4-4.4,5.1
					c0.2,2.6,2.5,4.6,5.1,4.4c3.7-0.3,7.3-0.9,10.7-1.7c0,2.9-0.8,5.8-2.5,8.4c-3.2,4.9-9.1,8.6-16.2,10c-0.4,0.1-0.6,0.5-0.9,0.6
					c-0.3,0.1-0.6,0.2-0.9,0.2v-64.2c7.5-8.6,15-17.6,19.4-27.4c2.4-5.3,3.8-8,7.2-8.8C634.5,82.3,636.9,92.6,636.9,92.7z"/>
				<path fill="#FFFFFF" d="M584.2,94.5V254c0,4.8-3.9,8.7-8.6,8.7h-41.2h-66.3c-4.8,0-8.6-3.9-8.6-8.7l-6-159.5
					c0-4.8,3.9-8.6,8.6-8.6h72.3h41.2C580.3,85.9,584.2,89.7,584.2,94.5z"/>
				<path fill="#FFFFFF" d="M514.1,68.3h-38.2c3.4-7.2,10.6-12.1,19.1-12.1C503.4,56.1,510.7,61.1,514.1,68.3z"/>
				<path fill="#FFFFFF" d="M446.4,262.6h-18.2c-4.8,0-8.6-3.9-8.6-8.7l3.2-50.4c7.8-0.3,13.2-3,16-4.9c0.6-0.1,1.5-0.4,2.3-1.1
					c0.8-0.6,1.4-1.3,2.1-1.9L445,254C445,257.2,445.5,260,446.4,262.6z"/>
				<path fill="#FFFFFF" d="M438.4,85.9h3.4c-0.9,2.6-1.4,5.5-1.4,8.6l1,35.8c-3-4.5-6.1-8.8-9.2-13.1c-1.2-1.6-2.4-3.2-3.5-4.9
					l1.1-17.9C429.7,89.7,433.6,85.9,438.4,85.9z"/>
				<path fill="#FFFFFF" d="M420.5,125.7c12.4,17,24.2,33.1,18.7,49.7c-1.5,4.7-3.9,8.4-7.1,10.9c-0.1,0.1-0.1,0.2-0.1,0.2
					c-0.4,0.4-7.4,6.4-21.3,1.1c-0.4-0.2-0.5-0.6-0.9-0.7c-7.2-2.1-12.9-6.4-15.7-11.8c-1.5-2.9-2.1-5.8-1.7-8.9
					c3.4,1.2,7.1,2.1,10.9,2.8c2.7,0.4,5.2-1.4,5.6-4.1c0.4-2.7-1.4-5.2-4.1-5.6c-12.6-2.1-21.3-7.8-24-12.1
					c-4.1-6.7-3.6-13.3,1.6-20.8c5.4,5.1,12.4,9.2,20.4,11.6c2.6,0.8,5.3-0.7,6.1-3.2c0.8-2.6-0.6-5.4-3.3-6.1
					c-12.4-3.8-21.8-12.2-23.9-21.4c-0.7-3-1.5-9.3,1.1-17.2c0-0.1,3.5-10.4,11.1-7.9c3.4,1.1,4.6,4.1,6.5,9.7
					C404.5,103.8,412.7,115,420.5,125.7z"/>
			</g>
			<g>
			</g>
		</g>
		<path fill="#E9425C" d="M548.7,101.2c-6.4,0-11.6,5.2-11.6,11.6c0,4.1,2.1,7.6,5.3,9.7c-0.4,11.3-9.7,20.4-21.1,20.4
			c-11.6,0-21-9.4-21.2-20.9c2.8-2.1,4.6-5.4,4.6-9.2c0-6.4-5.2-11.6-11.6-11.6c-6.4,0-11.6,5.2-11.6,11.6c0,4.4,2.5,8.2,6.2,10.2
			c0.7,18,15.5,32.5,33.7,32.5c18.3,0,33.3-14.7,33.7-32.9c3.2-2.1,5.4-5.7,5.4-9.8C560.3,106.4,555.1,101.2,548.7,101.2"/>
	</g>
	<path fill="#FFFFFF" d="M126.1,419.2v-30.5c-6.1-7.1-13.2-9.4-20.5-9.4c-13.4,0-23.2,11-23.2,24.6c0,13.6,9.8,24.4,23.2,24.4
		C112.9,428.4,120,426.3,126.1,419.2 M159.1,453.4h-33v-5.5c-7.3,4.7-16.3,7.5-27.1,7.5C72.4,455.4,50,433.2,50,404
		c0-29.5,22.4-51.5,49.1-51.5c10.8,0,19.7,2.8,27.1,7.5v-5.3h33V453.4z"/>
	<path fill="#FFFFFF" d="M253.3,451.6c-12.8,4.1-20.1,4.9-29.9,4.9c-23.8,0-39.7-17.5-39.7-44.2V383v-28.3v-14.1h33v14.1h33.6V383
		h-33.6v28.3c0,10,5.7,14.9,15.5,14.9c4.7,0,10.2-1,17.5-2.4L253.3,451.6z"/>
	<path fill="#FFFFFF" d="M342.9,419.2v-30.5c-6.1-7.1-13.2-9.4-20.5-9.4c-13.4,0-23.2,11-23.2,24.6c0,13.6,9.8,24.4,23.2,24.4
		C329.7,428.4,336.8,426.3,342.9,419.2 M375.9,453.4h-33v-5.5c-7.3,4.7-16.3,7.5-27.1,7.5c-26.7,0-49-22.2-49-51.5
		c0-29.5,22.4-51.5,49-51.5c10.8,0,19.7,2.8,27.1,7.5v-5.3h33V453.4z"/>
	<rect x="401.5" y="338.7" fill="#FFFFFF" width="33" height="114.7"/>
	<path fill="#FFFFFF" d="M531.1,419.2v-30.5c-6.1-7.1-13.2-9.4-20.6-9.4c-13.4,0-23.2,11-23.2,24.6c0,13.6,9.8,24.4,23.2,24.4
		C517.8,428.4,525,426.3,531.1,419.2 M564,453.4h-33v-5.5c-7.3,4.7-16.3,7.5-27.1,7.5c-26.7,0-49.1-22.2-49.1-51.5
		c0-29.5,22.4-51.5,49.1-51.5c10.8,0,19.7,2.8,27.1,7.5v-5.3h33V453.4z"/>
	<path fill="#FFFFFF" d="M692.1,397v56.4h-33.2v-51.1c0-14-7.1-20.7-17.9-20.7c-6.1,0-12.6,3.5-18.3,10v61.9h-33v-98.7h33v6.7
		c7.9-6.3,16.7-9.8,27.3-9.8C675,351.7,692.1,369,692.1,397"/>
	<path fill="#FFFFFF" d="M787.5,419.6v-30.5c-6.1-7.1-13.2-9.3-20.6-9.3c-13.4,0-23.2,11-23.2,24.4c0,13.8,9.8,24.6,23.2,24.6
		C774.3,428.8,781.4,426.7,787.5,419.6 M820.4,453.4h-33v-5.1c-7.3,4.7-16.3,7.5-27.1,7.5c-26.7,0-49.1-22.2-49.1-51.7
		c0-29.3,22.4-51.3,49.1-51.3c10.8,0,19.7,2.8,27.1,7.5v-21.7h33V453.4z"/>
	<path fill="#FFFFFF" d="M917,419.2v-30.5c-6.1-7.1-13.2-9.4-20.5-9.4c-13.4,0-23.2,11-23.2,24.6c0,13.6,9.8,24.4,23.2,24.4
		C903.8,428.4,910.9,426.3,917,419.2 M950,453.4h-33v-5.5c-7.3,4.7-16.3,7.5-27.1,7.5c-26.7,0-49-22.2-49-51.5
		c0-29.5,22.4-51.5,49-51.5c10.8,0,19.7,2.8,27.1,7.5v-5.3h33V453.4z"/>
</g>
</svg>
